<svg xmlns="http://www.w3.org/2000/svg" xmlns:xlink="http://www.w3.org/1999/xlink" width="545.39" height="530" viewBox="0 0 545.39 530">
  <defs>
    <linearGradient id="linear-gradient" y1="0.5" x2="1" y2="0.5" gradientUnits="objectBoundingBox">
      <stop offset="0" stop-color="#d9e1fc"/>
      <stop offset="1" stop-color="#e7edfb"/>
    </linearGradient>
    <linearGradient id="linear-gradient-2" y1="0.5" x2="1" y2="0.5" gradientUnits="objectBoundingBox">
      <stop offset="0" stop-color="#fffdfe"/>
      <stop offset="1" stop-color="#f1f5ff"/>
    </linearGradient>
    <linearGradient id="linear-gradient-3" x1="-159.638" y1="0.502" x2="-158.637" y2="0.502" gradientUnits="objectBoundingBox">
      <stop offset="0" stop-color="#4f52fd"/>
      <stop offset="1" stop-color="#4142e0"/>
    </linearGradient>
    <linearGradient id="linear-gradient-4" x1="1.47" y1="-0.169" x2="8.003" y2="-4.233" gradientUnits="objectBoundingBox">
      <stop offset="0" stop-color="#fcb9b8"/>
      <stop offset="1" stop-color="#fd908c"/>
    </linearGradient>
    <linearGradient id="linear-gradient-5" x1="-429.596" y1="0.491" x2="-428.593" y2="0.491" xlink:href="#linear-gradient-3"/>
    <linearGradient id="linear-gradient-6" x1="0.937" y1="0.229" x2="5.847" y2="-2.834" xlink:href="#linear-gradient-4"/>
    <linearGradient id="linear-gradient-7" x1="-354.501" y1="5.008" x2="-354.144" y2="4.202" gradientUnits="objectBoundingBox">
      <stop offset="0" stop-color="#53d6fd"/>
      <stop offset="1" stop-color="#3840f5"/>
    </linearGradient>
    <linearGradient id="linear-gradient-8" x1="-323.165" y1="1.033" x2="-325.553" y2="2.075" xlink:href="#linear-gradient-4"/>
    <linearGradient id="linear-gradient-9" x1="-164.62" y1="0.5" x2="-163.62" y2="0.5" xlink:href="#linear-gradient-4"/>
    <linearGradient id="linear-gradient-10" x1="-225.648" y1="-0.003" x2="-225.663" y2="1.889" xlink:href="#linear-gradient-4"/>
    <linearGradient id="linear-gradient-11" x1="-297.763" y1="58.737" x2="-299.283" y2="60.076" xlink:href="#linear-gradient-4"/>
    <linearGradient id="linear-gradient-12" x1="-811.936" y1="168.156" x2="-808.65" y2="165.802" xlink:href="#linear-gradient-4"/>
    <linearGradient id="linear-gradient-13" x1="-456.733" y1="0.502" x2="-455.732" y2="0.502" xlink:href="#linear-gradient-4"/>
    <linearGradient id="linear-gradient-14" x1="-73.184" y1="-0.593" x2="-76.735" y2="3.735" gradientUnits="objectBoundingBox">
      <stop offset="0" stop-color="#fd908c"/>
      <stop offset="1" stop-color="#fb7062"/>
    </linearGradient>
    <linearGradient id="linear-gradient-15" x1="-226.081" y1="-1.222" x2="-227.775" y2="3.818" xlink:href="#linear-gradient-4"/>
  </defs>
  <g id="Header_image_-Provide_my_experience_2-01" data-name="Header image -Provide my experience 2-01" transform="translate(-50.731 -132)">
    <g id="Objects" transform="translate(4.371 78.046)">
      <path id="Path_985" data-name="Path 985" d="M525.06,512.971c-14.149,14.573-17.1,16.68-26.8,23.145-94.475,63.09-231.187,47.841-264.521,41.627-53.869-10.029-80.326-13.566-119.4-48.861-88.765-80.22-84.473-247.549-16.627-351.206,8.042-12.295,74.6-107.658,182.83-121.807,2.65-.344,128.034-16.905,212.639,53.975a252.818,252.818,0,0,1,49.682,56.373C608.9,268.271,609.1,426.3,525.06,512.971Z" transform="translate(0.275 0)" fill="#e0ede1"/>
      <path id="Path_986" data-name="Path 986" d="M450.732,95.625a2.517,2.517,0,0,1,4.8-.119c8.214,23.41,23.3,88.593-27.305,162.454-63.5,92.74-61.659,139.494-47.456,174.881,0,0-29.849-28.67-32.962-76.842C340.146,237.729,438.755,137.384,450.732,95.625Z" transform="translate(97.788 12.948)" fill="#00b786"/>
      <path id="Path_987" data-name="Path 987" d="M444.484,123.417c-3.723,12.056-7.671,24.033-12.056,35.851s-9.009,23.543-14.057,35.082S408,217.283,402.221,228.465s-11.924,22.152-18.19,33.121-12.507,22.032-17.7,33.757a127.688,127.688,0,0,0-10.6,37.1c-.358,3.193-.676,6.412-.795,9.618s-.212,6.426-.185,9.645a132.7,132.7,0,0,0,12.9,55.988,2.44,2.44,0,0,0,4.451-2h0c-1.245-2.848-2.451-5.723-3.511-8.638-.57-1.444-1.06-2.915-1.577-4.372s-.994-2.941-1.4-4.438a127.983,127.983,0,0,1-4.041-18.1,141.535,141.535,0,0,1-.517-37.1,122.543,122.543,0,0,1,3.67-18.137,138.245,138.245,0,0,1,6.306-17.475c4.955-11.433,11.115-22.4,17.223-33.453s12.162-22.191,17.753-33.572q4.213-8.532,8.135-17.223c1.325-2.875,2.57-5.79,3.842-8.691s2.464-5.829,3.67-8.757q7.154-17.607,13.249-35.612c3.975-12.016,7.644-24.139,10.824-36.367a.662.662,0,0,0-.464-.808A.676.676,0,0,0,444.484,123.417Z" transform="translate(100.181 22.41)" fill="#bbcef9"/>
      <path id="Path_988" data-name="Path 988" d="M345.154,356.079a6.346,6.346,0,0,1-10.36-1.881c-9.989-22.735-32.446-89.587,6.717-165.885C374.632,123.9,386.4,85.822,390.531,68.162a3.975,3.975,0,0,1,7.525-.649C414.736,106.423,458.363,238.631,345.154,356.079Z" transform="translate(88.66 3.62)" fill="#37c4a2"/>
      <path id="Path_989" data-name="Path 989" d="M335.09,333.286a1.322,1.322,0,0,1-.331,0,1.762,1.762,0,0,1-1.709-1.8c0-1.1,3.392-111.049,45.337-202.7a1.755,1.755,0,1,1,3.193,1.457c-41.627,90.991-45.045,200.252-45.045,201.378A1.775,1.775,0,0,1,335.09,333.286Z" transform="translate(93.133 23.975)" fill="url(#linear-gradient)"/>
      <path id="Path_990" data-name="Path 990" d="M76.248,481.008a8.585,8.585,0,0,0,8.559,8.559h462.6a8.585,8.585,0,0,0,8.559-8.559l3.855-265.845c0-4.69-5.538-13.871-15.686-13.182l-452.12-11.7A21.529,21.529,0,0,0,69.9,212.328Z" transform="translate(7.646 44.284)" fill="#004e89"/>
      <path id="Path_991" data-name="Path 991" d="M82.637,470.335a8.108,8.108,0,0,0,8.095,8.082H534.187a8.108,8.108,0,0,0,8.095-8.082l3.63-241.349c-.424-14.573-13.156-19.74-20.88-19.436L91.8,197.931a15.143,15.143,0,0,0-15.554,15.5Z" transform="translate(9.709 46.77)" fill="url(#linear-gradient-2)"/>
      <g id="Group_280" data-name="Group 280" transform="translate(391.113 257.151)" opacity="0.6">
        <path id="Path_992" data-name="Path 992" d="M424.686,322.383h0a1.192,1.192,0,0,1-1.166-1.206l.291-19.581a1.166,1.166,0,0,1,1.179-1.166h0a1.206,1.206,0,0,1,1.179,1.206l-.292,19.568a1.206,1.206,0,0,1-1.192,1.179Z" transform="translate(-268.591 -177.082)" fill="#fff"/>
        <path id="Path_993" data-name="Path 993" d="M463.377,304.655h0a1.179,1.179,0,0,1-1.166-1.192l1.1-74.974a14,14,0,0,0-3.975-10.6c-4.942-4.73-12.772-4.491-13.1-4.478l-138.5-3.71a1.206,1.206,0,0,1-1.153-1.219,1.126,1.126,0,0,1,1.219-1.153l138.408,3.71c.861,0,9.208-.2,14.772,5.127a16.4,16.4,0,0,1,4.743,12.268l-1.1,74.987a1.179,1.179,0,0,1-1.245,1.232Z" transform="translate(-306.58 -207.327)" fill="#004e89"/>
      </g>
      <rect id="Rectangle_426" data-name="Rectangle 426" width="545.39" height="23.357" rx="5.65" transform="translate(591.75 555.923) rotate(180)" fill="#004e89"/>
      <path id="Path_994" data-name="Path 994" d="M375.171,103.769,100.727,102.1a15.7,15.7,0,0,0-15.792,16.481l18.879,390H409.286l16.958-348.437Z" transform="translate(12.525 15.641)" fill="#d0dfe3"/>
      <path id="Path_995" data-name="Path 995" d="M316.365,157.937a15.713,15.713,0,0,1-15.1-16.945L304.2,103.75l51.828,55.644Z" transform="translate(82.79 16.177)" fill="#504aad" opacity="0.2"/>
      <path id="Path_996" data-name="Path 996" d="M195.557,159.651c24.629,0,119.237-.331,143.084-.411,3.007,0,5.405,2.862,5.3,6.346h0c-.119,3.312-2.478,5.962-5.3,5.975L195.557,172.78a5.631,5.631,0,0,1-5.3-5.551v-.795C189.926,162.8,192.4,159.664,195.557,159.651Z" transform="translate(46.736 34.203)" fill="#fff" opacity="0.78"/>
      <path id="Path_997" data-name="Path 997" d="M194.707,180.3c24.642,0,119.237-.331,143.084-.411,3.007,0,5.405,2.862,5.3,6.346h0a5.843,5.843,0,0,1-5.3,5.975L194.707,193.43a5.631,5.631,0,0,1-5.3-5.551v-.808C189.076,183.454,191.527,180.314,194.707,180.3Z" transform="translate(46.46 40.911)" fill="#fff" opacity="0.78"/>
      <path id="Path_998" data-name="Path 998" d="M130.891,209.63H351.93c4.65,0,8.426,2.875,8.347,6.359h0c-.079,3.312-3.643,5.949-8.082,5.975l-220.92.835c-4.253,0-7.87-2.4-8.333-5.564l-.119-.808C122.28,212.77,126.029,209.617,130.891,209.63Z" transform="translate(24.822 50.572)" fill="#fff" opacity="0.78"/>
      <path id="Path_999" data-name="Path 999" d="M129.129,231.531c29.624-.132,143.349-.782,172.059-.941a6.293,6.293,0,0,1,6.452,6.32h0a6.267,6.267,0,0,1-6.333,6L129.341,244.66a6.346,6.346,0,0,1-6.452-5.538l-.093-.795a6.24,6.24,0,0,1,6.333-6.8Z" transform="translate(24.823 57.381)" fill="#fff" opacity="0.78"/>
      <path id="Path_1000" data-name="Path 1000" d="M130.614,259.67H351.653c4.65,0,8.426,2.888,8.347,6.359h0c-.08,3.325-3.657,5.962-8.082,5.975L131,272.839c-4.253,0-7.87-2.4-8.347-5.564l-.119-.795C122,262.757,125.738,259.67,130.614,259.67Z" transform="translate(24.729 66.828)" fill="#fff" opacity="0.78"/>
      <path id="Path_1001" data-name="Path 1001" d="M127.694,281.7c29.756,0,144.012.106,172.867.119a6.32,6.32,0,0,1,6.452,6.373h0a6.306,6.306,0,0,1-6.4,5.962l-172.788.676a6.359,6.359,0,0,1-6.452-5.564l-.08-.808a6.24,6.24,0,0,1,6.4-6.757Z" transform="translate(24.336 73.984)" fill="#fff" opacity="0.78"/>
      <path id="Path_1002" data-name="Path 1002" d="M129.191,310.74H350.23c4.65,0,8.426,2.875,8.347,6.359h0c-.079,3.312-3.643,5.949-8.082,5.962l-220.906.848c-4.266,0-7.949-2.4-8.347-5.564l-.119-.808C120.58,313.867,124.329,310.727,129.191,310.74Z" transform="translate(24.27 83.418)" fill="#fff" opacity="0.78"/>
      <path id="Path_1003" data-name="Path 1003" d="M127.031,332.511c29.769,0,144.025.106,172.88.119a6.293,6.293,0,0,1,6.439,6.359h0a6.293,6.293,0,0,1-6.386,5.962l-172.788.689a6.373,6.373,0,0,1-6.452-5.578l-.079-.808a6.227,6.227,0,0,1,6.386-6.743Z" transform="translate(24.125 90.49)" fill="#fff" opacity="0.78"/>
      <path id="Path_1004" data-name="Path 1004" d="M130.891,361.21H351.93c4.65,0,8.426,2.875,8.347,6.359h0c-.079,3.312-3.643,5.949-8.082,5.975l-220.92.835c-4.253,0-7.87-2.4-8.333-5.564l-.119-.808C122.28,364.337,126.029,361.2,130.891,361.21Z" transform="translate(24.822 99.814)" fill="#fff" opacity="0.78"/>
      <path id="Path_1005" data-name="Path 1005" d="M128.822,385.372c29.385,0,142.21-.146,170.694-.172a6.267,6.267,0,0,1,6.373,6.346h0a6.253,6.253,0,0,1-6.306,5.975l-170.6.994a6.32,6.32,0,0,1-6.386-5.564l-.08-.808a6.24,6.24,0,0,1,6.306-6.77Z" transform="translate(24.732 107.607)" fill="#fff" opacity="0.78"/>
      <g id="Group_281" data-name="Group 281" transform="translate(121.731 155.221)" opacity="0.78">
        <path id="Path_1006" data-name="Path 1006" d="M164.6,151.667l-15.461,56.969-4.187-.079L117.664,138.7c-1.245-3.3-2.517-5.3-3.816-5.909s-4.822-1.06-10.6-1.325V130.39l42.4,1.537v1.06a46.144,46.144,0,0,0-10.44.4c-1.934.437-2.915,1.418-2.915,2.915a7.419,7.419,0,0,0,.742,2.875L152.4,189.306l11.169-40.633-2.65-8.506q-1.471-4.783-3.577-5.816c-1.4-.676-4.995-1.126-10.771-1.325v-1.073l41.733,1.51v1.06a43.855,43.855,0,0,0-10.175.4c-1.895.437-2.835,1.484-2.835,3.127a7.539,7.539,0,0,0,.477,2.65l15.58,49.629L204.6,154.383a28.709,28.709,0,0,0,2.014-9.274q0-9.9-14.375-10.413v-1.047l30.79,1.113v1.047q-8.426-.318-12.48,8.029-.6,1.325-4.412,11.261L186.53,209.232l-3.975-.066Z" transform="translate(-103.25 -130.39)" fill="#fff"/>
      </g>
      <path id="Path_1007" data-name="Path 1007" d="M340.356,407.83c5.445.464,14.891,1.232,22.337,1.563a21.663,21.663,0,0,0,8.532-.835c0,.159,0,.318,0,.464a1.524,1.524,0,0,1-1.457,1.457,260.084,260.084,0,0,1-29.253,0,1.086,1.086,0,0,1-.888-1.643,7.8,7.8,0,0,1,.729-1.007Z" transform="translate(95.22 114.959)" fill="url(#linear-gradient-3)"/>
      <path id="Path_1008" data-name="Path 1008" d="M362.477,412.08c-7.446-.331-16.892-1.1-22.337-1.563,5.3-6.624,22.337-11,22.337-11h4.8a20.1,20.1,0,0,1,3.736,11.725A21.66,21.66,0,0,1,362.477,412.08Z" transform="translate(95.436 112.259)" fill="#004294"/>
      <path id="Path_1009" data-name="Path 1009" d="M363.423,393.62l-.45,8.89a2.04,2.04,0,0,1-1.736,1.908,7.948,7.948,0,0,1-3.6-.3,2.372,2.372,0,0,1-1.6-1.842l-1.55-8.651Z" transform="translate(100.094 110.342)" fill="url(#linear-gradient-4)"/>
      <path id="Path_1010" data-name="Path 1010" d="M410.271,409.7a4.332,4.332,0,0,0,3.882-2.875h0a3.06,3.06,0,0,1-2.067,3.5,13.566,13.566,0,0,1-5.723.9,5.71,5.71,0,0,1-4.293-1.987h0C403.832,410.089,406.336,410.2,410.271,409.7Z" transform="translate(115.554 114.634)" fill="url(#linear-gradient-5)"/>
      <path id="Path_1011" data-name="Path 1011" d="M400.562,393.58h3.975c6.015-.119,9.8,12.586,11.049,17.5a4.332,4.332,0,0,1-3.882,2.875c-3.975.543-6.439.437-8.214-.437-3.259-4.279-4.862-10.6-5.644-14.216a5,5,0,0,1,2.716-5.723Z" transform="translate(114.134 110.329)" fill="#004294"/>
      <path id="Path_1012" data-name="Path 1012" d="M404.526,387.35l2.2,8.744a2.371,2.371,0,0,1-1.232,2.65,8.531,8.531,0,0,1-4.544,1.1,1.974,1.974,0,0,1-1.616-1.325l-3.233-9.194Z" transform="translate(113.615 108.306)" fill="url(#linear-gradient-6)"/>
      <path id="Path_1013" data-name="Path 1013" d="M425.146,419.718c-2.729,2.424-11.619,2.742-11.619,2.742-32.022-76.842-45.125-87.772-45.125-87.772,4.624,29.014.742,93.23.742,93.23-5.3,2.332-12.1,0-12.1,0A494.578,494.578,0,0,0,340.7,306.364c21.648-.49,33.121-7.949,36.91-10.864C395.655,324.581,425.146,419.718,425.146,419.718Z" transform="translate(95.618 78.468)" fill="#0065ce"/>
      <path id="Path_1014" data-name="Path 1014" d="M379.233,228.909c4.094,20.443,2.65,56.969,1.669,73.688-.278,4.69,2.994,11.2,5.644,15.633a1.325,1.325,0,0,1-.556,1.948c-4.438,2.279-19.436,9.34-36.831,10.215a2.464,2.464,0,0,1-2.491-1.855c-12.9-48.172-27.888-78.948-27.888-78.948C335.327,223.172,379.233,228.909,379.233,228.909Z" transform="translate(88.497 56.664)" fill="#0065ce"/>
      <path id="Path_1015" data-name="Path 1015" d="M363.277,326.83a.954.954,0,0,0,.53-.159,1.02,1.02,0,0,0,.344-1.4,32.234,32.234,0,0,0-12.692-11.023,1.033,1.033,0,1,0-.9,1.855A30.631,30.631,0,0,1,362.4,326.339,1.033,1.033,0,0,0,363.277,326.83Z" transform="translate(98.611 84.512)" fill="url(#linear-gradient-7)"/>
      <path id="Path_1016" data-name="Path 1016" d="M387.718,273.4c-1.325,9.512-5.207,19.873-12.984,30.922l-2.954-2.4a91.6,91.6,0,0,0,1.471-29.571C378.047,271.425,383.717,272.379,387.718,273.4Z" transform="translate(105.714 70.826)" fill="url(#linear-gradient-8)"/>
      <path id="Path_1017" data-name="Path 1017" d="M361,253.982l4.571-25.172s30.578,23.37,25.7,58.651c-3.975-1.02-9.671-1.974-14.467-1.047C375.348,275.061,371.175,262.766,361,253.982Z" transform="translate(102.213 56.803)" fill="#0065ce"/>
      <path id="Path_1018" data-name="Path 1018" d="M321.528,244.39l11.8,25.411c-1.908,15.342-10.162,21.979-19.038,24.523a54.318,54.318,0,0,0-3.975-16.547C321.687,266.051,321.528,244.39,321.528,244.39Z" transform="translate(85.749 61.864)" fill="#0065ce"/>
      <path id="Path_1019" data-name="Path 1019" d="M316.71,269.59a54.319,54.319,0,0,1,3.975,16.547c-23.715,9.208-29.995-8.638-29.995-8.638l4.385-.742C304.959,277.764,311.874,274.585,316.71,269.59Z" transform="translate(79.372 70.051)" fill="url(#linear-gradient-9)"/>
      <path id="Path_1020" data-name="Path 1020" d="M327,222.107l5.7,20.946a4.067,4.067,0,0,0,5.445,2.65,84.159,84.159,0,0,0,8.214-3.749,5.485,5.485,0,0,0,1.934-7.883l-11.844-17.66Z" transform="translate(91.167 52.775)" fill="url(#linear-gradient-10)"/>
      <path id="Path_1021" data-name="Path 1021" d="M317.58,209.531c0,.358,4.743,23.847,4.743,23.847l13.394-3.034-1.245-22.986S318.441,203.5,317.58,209.531Z" transform="translate(88.107 49.44)" fill="url(#linear-gradient-11)"/>
      <path id="Path_1022" data-name="Path 1022" d="M332.911,214.519l1.6,12.043a2.656,2.656,0,0,1,0,.464c-.146.941-.848,4.16-4.094,3.246-2.941-.835-5.644-1.55-7.512-.98a1.7,1.7,0,0,0-1.166,1.961,72.872,72.872,0,0,0,3.087,10.97,1.683,1.683,0,0,0,2.053.994,55.141,55.141,0,0,0,11.791-4.822,1.683,1.683,0,0,0,.835-1.524c-.133-3.047-.49-12.295-.186-14.891s3.259-3.882,4.558-4.412a1.643,1.643,0,0,0,.927-.927c.609-1.51,1.431-4.995-2.954-6.412a1.709,1.709,0,0,1-1.073-2.2,4.412,4.412,0,0,0-2.477-6.094,6.214,6.214,0,0,0-7.419,1.789,1.722,1.722,0,0,1-2.173.252,1.325,1.325,0,0,0-1.524,0,1.683,1.683,0,0,1-2.371-.715,5.061,5.061,0,0,0-5.882-2.941c-6,1.033-6.624,7.671-5.1,11.566s8.029,2.411,11.248.45c2.464-1.5,5.644,0,7.035.9a1.682,1.682,0,0,1,.795,1.285Z" transform="translate(86.661 47.498)" fill="#00235c"/>
      <path id="Path_1023" data-name="Path 1023" d="M333.563,222.221s-2.464-6.9.079-8.6,6.28-.808,5.458,4.187C338.067,224.036,333.563,222.221,333.563,222.221Z" transform="translate(92.951 51.614)" fill="url(#linear-gradient-12)"/>
      <path id="Path_1024" data-name="Path 1024" d="M294.281,280.559c-1.192.941-5.3-1.007-7.777-2.358a2.875,2.875,0,0,1-1.391-3.4c.6-1.895,1.6-4.346,2.835-4.65C290.015,269.656,299.209,276.744,294.281,280.559Z" transform="translate(77.517 70.223)" fill="url(#linear-gradient-13)"/>
      <path id="Path_1025" data-name="Path 1025" d="M524.619,348.779,212.351,237.73,195.83,283.623l312.123,114.15a14.574,14.574,0,0,0,17.581-6.373c3.657-6.253,7.141-16.044,7.353-30.71a12.454,12.454,0,0,0-8.267-11.91Z" transform="translate(48.556 59.701)" fill="#004e89"/>
      <path id="Path_1026" data-name="Path 1026" d="M135.983,228.783l43.124,5.3c0,5.935-1.987,13.606-8.572,22.417l-36.01-23.755a2.173,2.173,0,0,1,1.457-3.961Z" transform="translate(28.329 56.79)" fill="#0065ce"/>
      <path id="Path_1027" data-name="Path 1027" d="M223.513,239.338a60.109,60.109,0,0,1-16.521,45.893L161.47,255.2c6.624-8.81,8.532-16.481,8.572-22.417Z" transform="translate(37.394 58.093)" fill="url(#linear-gradient-14)"/>
      <path id="Path_1028" data-name="Path 1028" d="M514.523,358.506a.888.888,0,0,0,.861-.609.9.9,0,0,0-.556-1.166L216.1,251.153a.914.914,0,0,0-1.166.556.927.927,0,0,0,.556,1.179L514.218,358.453A.822.822,0,0,0,514.523,358.506Z" transform="translate(54.745 64.044)" fill="#0065ce"/>
      <path id="Path_1029" data-name="Path 1029" d="M510.624,372.093a.914.914,0,0,0,.3-1.775L212.2,264.74a.914.914,0,0,0-.609,1.722L510.32,372.04a.874.874,0,0,0,.3.053Z" transform="translate(53.489 68.462)" fill="#0065ce"/>
      <path id="Path_1030" data-name="Path 1030" d="M377.55,294.536l-13.8-1.126-5.975,5.511s1.418,1.948,5.829.835a63.332,63.332,0,0,1,10.48-1.4s6.108,2.756,6.174-2.4Z" transform="translate(101.163 77.789)" fill="url(#linear-gradient-15)"/>
    </g>
  </g>
</svg>
