<svg xmlns="http://www.w3.org/2000/svg" xmlns:xlink="http://www.w3.org/1999/xlink" width="492" height="239.177" viewBox="0 0 492 239.177">
  <defs>
    <clipPath id="clip-path">
      <path id="Path_291" data-name="Path 291" d="M464.555,842.606c-.362,1.793-1.822,6.009-1.4,8.06,1.841,1.555,5.77,1.66,8.718.954s5.017.773,8.718.954,6.677-.792,7.4-2.318-5.532-2.938-9.853-4.264a19.689,19.689,0,0,1-7.335-3.872Z" transform="translate(-463.077 -842.12)" fill="#228c7e"/>
    </clipPath>
    <clipPath id="clip-path-2">
      <path id="Path_298" data-name="Path 298" d="M325.105,808.4c-1.831.124-6.286-.162-8.155.782-1.011,2.175-.076,6,1.421,8.641s.591,5.046,1.364,8.67,2.528,6.209,4.187,6.524c1.812.343,1.373-6.114,1.507-10.635a19.764,19.764,0,0,1,1.793-8.088Z" transform="translate(-316.528 -808.403)" fill="#03aa99"/>
    </clipPath>
    <clipPath id="clip-path-3">
      <path id="Path_308" data-name="Path 308" d="M350.962,686.291s32.734-17.731,34.928-19.438,15.356-46.793,16.367-49.7c0,0,9.7-7.9,11.035-14.164l-22.414-14.669c-1.707,3.682-1.7,6.142-6.257,15.356-4.178,8.422-5.894,33.383-10.129,54.586a38.157,38.157,0,0,0-6.734,2.623c-3.958,1.908-20.717,19.62-20.717,19.62A8.183,8.183,0,0,0,350.962,686.291Z" transform="translate(-347.042 -588.317)" fill="#004e89"/>
    </clipPath>
  </defs>
  <g id="Header_image_-Cotact_Us-01" data-name="Header image -Cotact Us-01" transform="translate(174.823 -32.134)">
    <g id="Objects" transform="translate(-174.823 32.134)">
      <rect id="Rectangle_226" data-name="Rectangle 226" width="228.502" height="154.554" transform="translate(226.217 81.919)" fill="#ffc253"/>
      <path id="Path_265" data-name="Path 265" d="M834.866,514.332l107.245,97.86a10.4,10.4,0,0,0,14,0l107.255-97.86Z" transform="translate(-608.65 -432.374)" fill="#e09736"/>
      <path id="Path_266" data-name="Path 266" d="M1212.4,714.858,1098.143,595.614,1212.4,704.7Z" transform="translate(-757.68 -478.385)" fill="#e09736"/>
      <path id="Path_267" data-name="Path 267" d="M834.866,714.858,949.113,595.614,834.866,704.7Z" transform="translate(-608.65 -478.385)" fill="#e09736"/>
      <path id="Path_268" data-name="Path 268" d="M834.866,514.332l105.6,89.228a13.353,13.353,0,0,0,17.283,0l105.614-89.228Z" transform="translate(-608.65 -432.374)" fill="#ffc854"/>
      <path id="Path_269" data-name="Path 269" d="M1310.6,794.7s-7.23-3.262-6.677-11.026,5.818-9.347,10.406-12.17,4.931-7.583,5.113-13.4,4.054-11.646,11.818-11.293,10.625,1.907,16.215-4.769,13.21-6.524,16.377-2.861,3.386,10.072-1.431,14.469c-5.856,5.351-7.373,6.677-9.071,12.571-2.3,7.983,1.021,15.757-1.908,19.467-3.939,4.96-8.193,3.739-12.247,5.351s-4.225,3.663-4.225,3.663Z" transform="translate(-874.147 -558.23)" fill="#40c7a7"/>
      <path id="Path_270" data-name="Path 270" d="M1378.994,754.486c-11.865,6.915-32.515,27.965-36.016,50.3" transform="translate(-896.271 -568.316)" fill="none" stroke="#3b55ce" stroke-linecap="round" stroke-width="2.308"/>
      <path id="Path_271" data-name="Path 271" d="M489.369,501.75c6.81,6.219,14.231,10.435,22.825,8.794,12.094-2.3,21.546-14.631,21.546-14.631s3.119,4.063,3.119,4.473-7.993,16.262-22.5,19.515-27.546-7.144-27.546-7.144Z" transform="translate(-411.631 -421.948)" fill="#dd7a79"/>
      <path id="Path_272" data-name="Path 272" d="M649.7,490.917a20.173,20.173,0,0,0,25.381,6.429l16.167-7.955a6.677,6.677,0,0,1,8.584,2.413l29.186,45.859a6.676,6.676,0,0,1-2.346,9.414c-9.433,5.341-28.929,14.374-50.4,12.628-30.121-2.451-49.741-30.464-82.914-82.6s-50.256-81.76-39.726-110.1c7.506-20.182,23.95-34.022,32.782-40.308a6.677,6.677,0,0,1,9.538,1.908l29.186,45.849a6.677,6.677,0,0,1-1.469,8.823l-14.04,11.255a20.182,20.182,0,0,0-4.922,25.753Z" transform="translate(-447.704 -325.464)" fill="#0065ce"/>
      <path id="Path_273" data-name="Path 273" d="M646.769,392.733l11.827-9.481a6.677,6.677,0,0,0,1.459-8.823L644.633,350.2l-13.944-21.852a6.677,6.677,0,0,0-9.347-1.641,108.118,108.118,0,0,0-10.978,8.975Z" transform="translate(-481.567 -325.473)" fill="#004e89"/>
      <path id="Path_274" data-name="Path 274" d="M881.977,766.161a109.443,109.443,0,0,0,12.771-6.142,6.677,6.677,0,0,0,2.489-9.118l-29.987-46.994a6.677,6.677,0,0,0-7.955-1.574l-13.725,6.734Z" transform="translate(-614.709 -538.406)" fill="#004e89"/>
      <path id="Path_275" data-name="Path 275" d="M489.136,510.156l5.522,4.139s2.49,7.63-1.717,11.617l-7.316-4.407Z" transform="translate(-410.959 -430.01)" fill="#e09736"/>
      <path id="Path_278" data-name="Path 278" d="M520.564,827.706a13.516,13.516,0,0,0,1.4-11.56c-2.737-8.823-10.921-12.9-7.974-18.666,2.451-4.769,9.8-2.375,13.677,4.1,3.739,6.209,4.025,19.315-1.908,26.125Z" transform="translate(-426.659 -591.233)" fill="#40c7a7"/>
      <path id="Path_279" data-name="Path 279" d="M528.113,806.666s11.264,12.18,3.892,27.708" transform="translate(-435.009 -597.853)" fill="none" stroke="#3b55ce" stroke-linecap="round" stroke-width="2.308"/>
      <path id="Path_280" data-name="Path 280" d="M541.528,810.81A37.445,37.445,0,0,0,554.7,794.881c4.655-10.74,4.855-23.3,0-27.756-4.54-4.168-9.929-1.621-11.35,5.666s1.822,25.753-7.7,38.019Z" transform="translate(-439.277 -574.336)" fill="#22a482"/>
      <path id="Path_281" data-name="Path 281" d="M555.2,774.4a64.626,64.626,0,0,1-1.822,22.72,54.3,54.3,0,0,1-9.328,18.942" transform="translate(-444.03 -579.588)" fill="none" stroke="#3b55ce" stroke-linecap="round" stroke-width="2.308"/>
      <path id="Path_282" data-name="Path 282" d="M757.271,810.98s.2-15.938-12.447-30.789-27.1-20.2-39.592-15.661c-9.3,3.357-6.915,14.126.687,18.714,9,5.427,42.721,7.63,43.875,27.737Z" transform="translate(-531.846 -573.114)" fill="#91dbac"/>
      <path id="Path_283" data-name="Path 283" d="M716.2,783.116c17.168-.954,43.474,14.851,47.089,39.249" transform="translate(-541.475 -584.499)" fill="none" stroke="#3b55ce" stroke-linecap="round" stroke-width="2.308"/>
      <path id="Path_284" data-name="Path 284" d="M818.005,817.458s7.84-8.355,6.324-24.446-15.661-20.077-18.208-12.3c-1.994,6.123,11.779,20.373,6.867,36.75Z" transform="translate(-592.266 -580.985)" fill="#3dc19a"/>
      <path id="Path_285" data-name="Path 285" d="M822.206,788.335c3.033,3.93,8.87,20.03,2.919,35.615" transform="translate(-601.483 -587.476)" fill="none" stroke="#3b55ce" stroke-linecap="round" stroke-width="2.308"/>
      <path id="Path_286" data-name="Path 286" d="M487.955,860.847c.324.62.076,1.85-2.385,2.861s-6.9.591-8.66.248-2.861-.858-5.456-.315-6.9.305-8.193-.792c-.448-.515-.143-1.593-.143-1.593Z" transform="translate(-398.161 -628.522)" fill="#8fc9c6"/>
      <path id="Path_287" data-name="Path 287" d="M464.555,842.606c-.362,1.793-1.822,6.009-1.4,8.06,1.841,1.555,5.77,1.66,8.718.954s5.017.773,8.718.954,6.677-.792,7.4-2.318-5.532-2.938-9.853-4.264a19.689,19.689,0,0,1-7.335-3.872Z" transform="translate(-398.195 -617.922)" fill="#228c7e"/>
      <g id="Group_94" data-name="Group 94" transform="translate(64.882 224.198)" clip-path="url(#clip-path)">
        <path id="Path_288" data-name="Path 288" d="M484.241,847.014s.868-2.442,2.032-3.224" transform="translate(-475.057 -843.065)" fill="none" stroke="#8fc9c6" stroke-linecap="round" stroke-width="1.165"/>
        <path id="Path_289" data-name="Path 289" d="M491.824,850.025s.868-2.442,2.032-3.224" transform="translate(-479.35 -844.77)" fill="none" stroke="#8fc9c6" stroke-linecap="round" stroke-width="1.165"/>
        <path id="Path_290" data-name="Path 290" d="M499.408,853s.868-2.442,2.032-3.233" transform="translate(-483.642 -846.45)" fill="none" stroke="#8fc9c6" stroke-linecap="round" stroke-width="1.165"/>
      </g>
      <path id="Path_292" data-name="Path 292" d="M466.482,826.756v7.153a3.121,3.121,0,0,1,1.173.677c.343.41.82,1.755,1.4,1.784,2.308.1,3.672-2.957,3.672-2.957l.868-6.5Z" transform="translate(-400.122 -609.225)" fill="#ff9a8d"/>
      <path id="Path_293" data-name="Path 293" d="M322.28,834.04c-.506.477-1.765.563-3.4-1.536s-2.394-6.5-2.528-8.288.076-2.966-1.135-5.341-2.127-6.572-1.412-8.107c.382-.572,1.5-.563,1.5-.563Z" transform="translate(-313.558 -599.856)" fill="#aaeeed"/>
      <path id="Path_294" data-name="Path 294" d="M325.105,808.4c-1.831.124-6.286-.162-8.155.782-1.011,2.175-.076,6,1.421,8.641s.591,5.046,1.364,8.67,2.528,6.209,4.187,6.524c1.812.343,1.373-6.114,1.507-10.635a19.764,19.764,0,0,1,1.793-8.088Z" transform="translate(-315.239 -598.836)" fill="#03aa99"/>
      <g id="Group_95" data-name="Group 95" transform="translate(1.289 209.567)" clip-path="url(#clip-path-2)">
        <path id="Path_295" data-name="Path 295" d="M333.371,827.657s2.575.191,3.644,1.1" transform="translate(-326.062 -819.302)" fill="none" stroke="#aaeeed" stroke-linecap="round" stroke-width="1.165"/>
        <path id="Path_296" data-name="Path 296" d="M332.469,835.746s2.585.191,3.653,1.106" transform="translate(-325.552 -823.88)" fill="none" stroke="#aaeeed" stroke-linecap="round" stroke-width="1.165"/>
        <path id="Path_297" data-name="Path 297" d="M331.568,843.856s2.585.191,3.653,1.106" transform="translate(-325.042 -828.471)" fill="none" stroke="#aaeeed" stroke-linecap="round" stroke-width="1.165"/>
      </g>
      <path id="Path_299" data-name="Path 299" d="M338.72,800.753l-4.655,3.319a3.166,3.166,0,0,1-.353,1.307c-.3.448-1.478,1.259-1.345,1.822.525,2.251,3.815,2.766,3.815,2.766l6.419-3.424Z" transform="translate(-324.2 -594.506)" fill="#ff9a8d"/>
      <path id="Path_300" data-name="Path 300" d="M468.746,592.009c-8.012,0-13.973.6-13.973.6-2.556,1.116-6.953,6.944-8.25,10.635s.629,8.861,1.307,12.037c3.758,17.712,7.63,30.016,9.061,37.046.9,4.292-2.289,4.979-2.318,11.779,0,9.738.362,30.522.362,30.522a9.357,9.357,0,0,0,6.963.553s6.009-34.242,6.677-38.152c1.068-6.362,1.44-9.023,1.555-20.03C470.292,621.52,468.746,592.009,468.746,592.009Z" transform="translate(-388.576 -476.344)" fill="#0065ce"/>
      <path id="Path_301" data-name="Path 301" d="M412.6,603.13c-1.345,6.276-10.33,13.811-10.33,13.811-1.021,2.919-14.183,48-16.386,49.722s-34.909,19.419-34.909,19.419a7.392,7.392,0,0,1-3.1-3.262,9.389,9.389,0,0,1-.753-2.146,1.565,1.565,0,0,0-.057-.305.387.387,0,0,1,0-.067s16.758-17.722,20.707-19.61a36.866,36.866,0,0,1,6.734-2.633h0c4.512-20.984,4.368-37.322,8.012-48.892a51.411,51.411,0,0,1,2.117-5.723c.954-2.051,1.65-3.758,2.222-5.217.238-.629.458-1.211.658-1.755s.372-1.059.525-1.526c.1-.324.2-.639.3-.954.41-1.316.706-2.375,1.03-3.376.143-.439.3-.868.458-1.316.086-.21.172-.439.267-.649s.181-.458.286-.687h0l6.257,4.664,3.014,2.241Z" transform="translate(-332.523 -474.055)" fill="#0065ce"/>
      <path id="Path_302" data-name="Path 302" d="M399.58,594.925a29.778,29.778,0,0,1-3.815,4.092c-4.645,4.054-7.449,10.339-9.929,23.387-2.795,14.689-7.478,36.531-8.041,37.885s-4.693.839-12.247,6.362c-5.723,4.168-13.992,12.829-17.741,16.157a9.383,9.383,0,0,1-.753-2.146,3.019,3.019,0,0,0-.057-.305.4.4,0,0,1,0-.067s16.758-17.722,20.707-19.61a36.875,36.875,0,0,1,6.734-2.633h0c4.3-20.984,4.368-37.322,8.012-48.892a48.449,48.449,0,0,1,2.127-5.723c.954-2.051,1.65-3.768,2.213-5.236.258-.63.467-1.221.658-1.755s.372-1.059.525-1.526c.1-.324.2-.639.3-.954.41-1.316.706-2.375,1.03-3.376.143-.439.3-.868.458-1.316.086-.21.172-.439.267-.649s.2-.448.305-.677h0l6.257,4.674Z" transform="translate(-332.485 -474.043)" fill="#4e7eac"/>
      <path id="Path_303" data-name="Path 303" d="M461.447,620.512s-4.1,5.37-15.356,5.79a23.93,23.93,0,0,1-12.733-2.861l3.043-4.769Z" transform="translate(-381.372 -491.437)" fill="#4e7eac"/>
      <path id="Path_304" data-name="Path 304" d="M350.962,686.291s32.734-17.731,34.928-19.438,15.356-46.793,16.367-49.7c0,0,9.7-7.9,11.035-14.164l-22.414-14.669c-1.707,3.682-1.7,6.142-6.257,15.356-4.178,8.422-5.894,33.383-10.129,54.586a38.157,38.157,0,0,0-6.734,2.623c-3.958,1.908-20.717,19.62-20.717,19.62A8.183,8.183,0,0,0,350.962,686.291Z" transform="translate(-332.512 -474.254)" fill="#004e89"/>
      <g id="Group_96" data-name="Group 96" transform="translate(14.53 114.063)" clip-path="url(#clip-path-3)">
        <path id="Path_305" data-name="Path 305" d="M407.505,594.515c-4.721,6.047-10.74,9.719-13.239,13.868s-3.892,13.124-7.134,29.549-6.152,27.374-7.039,28.357-6.419,1.908-15.051,7.735a191.428,191.428,0,0,0-18.637,15.07" transform="translate(-346.681 -591.825)" fill="none" stroke="#274d79" stroke-width="1.165"/>
        <path id="Path_306" data-name="Path 306" d="M460.756,627.529s-1.908,10.311-11.045,8.584" transform="translate(-405.159 -610.513)" fill="none" stroke="#274d79" stroke-width="1.165"/>
        <path id="Path_307" data-name="Path 307" d="M351.109,793.324a11.6,11.6,0,0,0,5.532,8.918" transform="translate(-349.344 -704.363)" fill="none" stroke="#274d79" stroke-width="1.165"/>
      </g>
      <path id="Path_309" data-name="Path 309" d="M471.845,473.856l7.754,6.638,4.445-10.549-9.233-5.332Z" transform="translate(-403.158 -404.231)" fill="#ff9a8d"/>
      <path id="Path_310" data-name="Path 310" d="M486.449,473.074s-9.147-2.566-7.917-8.46l9.233,5.332Z" transform="translate(-406.879 -404.231)" fill="#ba5964"/>
      <path id="Path_311" data-name="Path 311" d="M459.5,492.318a9.051,9.051,0,0,1,3.233,5.952c.42,3.748.754,9.357,1.068,17.5.286,7.4,1.03,28.862,1.03,28.862s-5.656,3.71-15.165,2.947c-9.09-.725-13.01-5.2-13.01-5.2s.954-30.178,3.93-42.053c4.416-12.247,11.388-14.374,11.388-14.374Z" transform="translate(-383.238 -416.312)" fill="#ffc253"/>
      <path id="Path_312" data-name="Path 312" d="M510.639,444.721c.477.83,2.976,4.34,3.815,5.351s-2.423,1.288-2.423,1.288Z" transform="translate(-425.118 -392.971)" fill="#ba5964"/>
      <path id="Path_313" data-name="Path 313" d="M471.076,442.14a21.59,21.59,0,0,0,1.068,2.117c.544.9,8.145,3.987,10.158,4.225s4.674-.162,4.14-6.858-2.232-12.5-6.677-15.537-10.759.277-13.468,4.569S466.45,443.38,471.076,442.14Z" transform="translate(-399.423 -381.758)" fill="#ff9a8d"/>
      <path id="Path_314" data-name="Path 314" d="M466.54,430.949h0l-.954,3.09s-.773.362-2.709-2.041c-2.127-2.642-6-7.144-5.618-10.005.506-3.748,4.769-5.1,4.769-5.1s2.194-6.934,10.768-10.625,12.4,2.518,5.78,7.1c0,0,4.588,2.289,1.688,4.025s-11.169,1.526-11.169,1.526,4.063,1.545,2.861,2.7-6.457.677-6.457.677l.658,2.642s-2.137-.658-3.291.725C461.466,427.315,463.593,431.826,466.54,430.949Z" transform="translate(-394.887 -370.566)" fill="#001c45"/>
      <path id="Path_315" data-name="Path 315" d="M461.687,413.62s-2.556,5.532,2.241,9.252c0,0-4.769-.153-5.8-4.693" transform="translate(-395.394 -375.365)" fill="none" stroke="#001c45" stroke-linecap="round" stroke-width="1.736"/>
      <path id="Path_316" data-name="Path 316" d="M500.775,447.055a.83.83,0,0,0-1.059-.506.811.811,0,0,0-.506,1.049.83.83,0,0,0,1.049.515.839.839,0,0,0,.515-1.059Z" transform="translate(-418.62 -393.979)" fill="#001c45"/>
      <path id="Path_317" data-name="Path 317" d="M498.667,442.182l-3.319,2.184a1.984,1.984,0,0,1,.878-2,2.241,2.241,0,0,1,2.442-.181Z" transform="translate(-416.445 -391.376)" fill="#001c45"/>
      <path id="Path_318" data-name="Path 318" d="M471.729,453.841a1.908,1.908,0,0,1,1.7-.286c.191.086,0,.41-.172.4-.954-.076-1.955.172-2.1,1.269,0,.057-.057,0-.057,0A1.4,1.4,0,0,1,471.729,453.841Z" transform="translate(-402.728 -397.922)" fill="#ba5964"/>
      <path id="Path_319" data-name="Path 319" d="M472.947,454.219c.076-.067.353.1.353.172a1.211,1.211,0,0,0-.343.534,1.574,1.574,0,0,0,.067.954,1.745,1.745,0,0,0,1.812,1.24s.048,0,0,.048a1.679,1.679,0,0,1-2.013-.715A1.8,1.8,0,0,1,472.947,454.219Z" transform="translate(-403.526 -398.338)" fill="#ba5964"/>
      <path id="Path_320" data-name="Path 320" d="M459.924,500.452c-1.908.954-4.34,6.41-2.585,12.256s4.016,11.894,4.016,11.894,9.042-2.136,11.446-7.9c0,0-3.2-7.8-4.683-10.959S464.665,497.944,459.924,500.452Z" transform="translate(-394.604 -424.112)" fill="#e09736"/>
      <path id="Path_321" data-name="Path 321" d="M476.969,560.406c2.032,2.032,4.769,4.254,6.333,4.864-.124-3.405-.248-6.3-.362-9.452l-6.772-8.985-4.445-1.2-1.593,4.607S473.736,557.163,476.969,560.406Z" transform="translate(-402.187 -450.092)" fill="#e09736"/>
      <path id="Path_322" data-name="Path 322" d="M463.77,500.939c-4.273,1.135-5.723,7.268-1.431,16.768,4.13,9.109,10.778,17.445,14.86,20.287s19.915,1.907,33.154-2c0,0,7.544-2.709,9.643-4.569,4.674-4.14,4.9-9.633,1.469-8.823s-8.851,4.54-8.851,4.54-1.44-2.861-2.48-5.036c0,0-.954.238-1.259,2.2s-.3,4.693-.868,5.093c-1.517,1.059-22.739,2.861-25.266.343-2.861-2.861-7.029-10.33-9.986-17.254C469.493,504.85,468.177,499.814,463.77,500.939Z" transform="translate(-396.313 -424.704)" fill="#ff9a8d"/>
      <path id="Path_323" data-name="Path 323" d="M461.551,498.025c-1.908.954-4.34,6.41-2.585,12.266s4.015,11.884,4.015,11.884,8.489-1.278,12.094-6.152c0,0-3.863-9.538-5.351-12.7S466.291,495.546,461.551,498.025Z" transform="translate(-395.525 -422.744)" fill="#ffc253"/>
    </g>
  </g>
</svg>
