<svg xmlns="http://www.w3.org/2000/svg" xmlns:xlink="http://www.w3.org/1999/xlink" width="1513.658" height="285.311" viewBox="0 0 1513.658 285.311">
  <defs>
    <clipPath id="clip-path">
      <path id="Path_291" data-name="Path 291" d="M465,842.754c-.472,2.337-2.374,7.831-1.827,10.5,2.4,2.026,7.52,2.163,11.361,1.243s6.538,1.007,11.362,1.243,8.7-1.032,9.646-3.021-7.21-3.829-12.841-5.556a25.658,25.658,0,0,1-9.559-5.047Z" transform="translate(-463.077 -842.12)" fill="#228c7e"/>
    </clipPath>
    <clipPath id="clip-path-2">
      <path id="Path_298" data-name="Path 298" d="M326.769,808.4c-2.186.148-7.5-.194-9.737.934-1.207,2.6-.091,7.163,1.7,10.317s.706,6.024,1.628,10.352,3.018,7.414,5,7.789c2.164.41,1.64-7.3,1.8-12.7a23.6,23.6,0,0,1,2.141-9.657Z" transform="translate(-316.528 -808.402)" fill="#03aa99"/>
    </clipPath>
    <clipPath id="clip-path-3">
      <path id="Path_308" data-name="Path 308" d="M351.723,705.293s39.083-21.17,41.7-23.208,18.335-55.869,19.542-59.342c0,0,11.581-9.429,13.176-16.911l-26.762-17.515c-2.038,4.4-2.027,7.334-7.471,18.335-4.988,10.056-7.038,39.858-12.094,65.173a45.556,45.556,0,0,0-8.04,3.132c-4.726,2.278-24.735,23.425-24.735,23.425A9.771,9.771,0,0,0,351.723,705.293Z" transform="translate(-347.043 -588.316)" fill="#004e89"/>
    </clipPath>
  </defs>
  <g id="Header_image_-Cotact_Us-01" data-name="Header image -Cotact Us-01" transform="translate(1079.28 -26)">
    <g id="Objects" transform="translate(-891.28)">
      <rect id="Rectangle_226" data-name="Rectangle 226" width="272.82" height="184.529" transform="translate(1008.327 123.807)" fill="#ffc253"/>
      <path id="Path_265" data-name="Path 265" d="M834.866,514.332l128.046,116.84a12.413,12.413,0,0,0,16.717,0l128.057-116.84Z" transform="translate(173.46 -390.479)" fill="#e09736"/>
      <path id="Path_266" data-name="Path 266" d="M1234.559,737.986,1098.143,595.614l136.416,130.243Z" transform="translate(46.588 -429.648)" fill="#e09736"/>
      <path id="Path_267" data-name="Path 267" d="M834.866,737.986l136.4-142.371-136.4,130.243Z" transform="translate(173.46 -429.648)" fill="#e09736"/>
      <path id="Path_268" data-name="Path 268" d="M834.866,514.332,960.953,620.866a15.943,15.943,0,0,0,20.635,0l126.1-106.534Z" transform="translate(173.46 -390.479)" fill="#ffc854"/>
      <path id="Path_269" data-name="Path 269" d="M1311.9,805.959s-8.632-3.895-7.972-13.164,6.947-11.16,12.424-14.531,5.888-9.053,6.1-16,4.84-13.9,14.11-13.483,12.686,2.277,19.359-5.694,15.772-7.789,19.553-3.416,4.043,12.026-1.708,17.275c-6.992,6.389-8.8,7.972-10.83,15.009-2.744,9.532,1.219,18.813-2.277,23.243-4.7,5.922-9.782,4.464-14.622,6.389s-5.045,4.373-5.045,4.373Z" transform="translate(-52.563 -497.623)" fill="#40c7a7"/>
      <path id="Path_270" data-name="Path 270" d="M1385.979,754.486c-14.167,8.256-38.822,33.389-43,60.06" transform="translate(-71.397 -506.208)" fill="none" stroke="#3b55ce" stroke-linecap="round" stroke-width="2.308"/>
      <path id="Path_271" data-name="Path 271" d="M489.865,502.882c8.131,7.425,16.991,12.458,27.251,10.5,14.44-2.744,25.725-17.469,25.725-17.469s3.724,4.851,3.724,5.341-9.543,19.416-26.864,23.3-32.888-8.53-32.888-8.53Z" transform="translate(341.186 -381.602)" fill="#dd7a79"/>
      <path id="Path_272" data-name="Path 272" d="M668.936,523.007a24.086,24.086,0,0,0,30.3,7.675l19.3-9.5a7.972,7.972,0,0,1,10.249,2.881l34.847,54.753a7.971,7.971,0,0,1-2.8,11.24c-11.263,6.377-34.539,17.162-60.174,15.078-35.963-2.927-59.388-36.373-98.995-98.619s-60-97.617-47.431-131.45c8.962-24.1,28.595-40.621,39.14-48.125a7.972,7.972,0,0,1,11.388,2.278l34.847,54.742a7.972,7.972,0,0,1-1.754,10.534L621.1,407.932a24.1,24.1,0,0,0-5.876,30.747Z" transform="translate(310.476 -299.464)" fill="#0065ce"/>
      <path id="Path_273" data-name="Path 273" d="M653.83,405.776l14.121-11.32a7.972,7.972,0,0,0,1.742-10.534L651.279,355l-16.649-26.09a7.971,7.971,0,0,0-11.16-1.959,129.091,129.091,0,0,0-13.107,10.716Z" transform="translate(281.648 -299.472)" fill="#004e89"/>
      <path id="Path_274" data-name="Path 274" d="M889.038,778.674a130.662,130.662,0,0,0,15.248-7.334,7.972,7.972,0,0,0,2.972-10.887l-35.8-56.108a7.972,7.972,0,0,0-9.5-1.879l-16.387,8.04Z" transform="translate(168.302 -480.745)" fill="#004e89"/>
      <path id="Path_275" data-name="Path 275" d="M489.817,510.156l6.594,4.942s2.972,9.11-2.05,13.87l-8.734-5.261Z" transform="translate(341.758 -388.466)" fill="#e09736"/>
      <path id="Path_276" data-name="Path 276" d="M239.351,816.113a39.732,39.732,0,0,0,10.636-13.586c4.327-9.031.478-16.911-5.569-15.772-6.446,1.23-7.345-4.043-9.11-10.716-2.13-7.971-12.527-19.359-20.92-18.221-10.887,1.469-4.009,13.13-2.893,17.355s3.861,9.11-2.893,9.771c-6.149.6-8.848,6.184-4.054,11.912,4.555,5.432,9.52,5.352,9.748,10.875s3.656,7.072,6.548,8.4Z" transform="translate(478.391 -507.776)" fill="#91dbac"/>
      <path id="Path_277" data-name="Path 277" d="M234.68,776.466s14.8,19.359,11.092,48.672" transform="translate(462.688 -516.8)" fill="none" stroke="#3b55ce" stroke-linecap="round" stroke-width="2.308"/>
      <path id="Path_278" data-name="Path 278" d="M521.961,834.055a16.136,16.136,0,0,0,1.674-13.8c-3.268-10.534-13.039-15.4-9.52-22.286,2.927-5.694,11.7-2.836,16.33,4.9,4.464,7.414,4.806,23.061-2.278,31.191Z" transform="translate(374.393 -525.718)" fill="#40c7a7"/>
      <path id="Path_327" data-name="Path 327" d="M526.14,837.633a17.614,17.614,0,0,1-1.827-15.066c3.568-11.5,14.233-16.806,10.392-24.327-3.195-6.215-12.766-3.1-17.825,5.345-4.873,8.092-5.246,25.172,2.486,34.047Z" transform="translate(-350.424 -529.448)" fill="#40c7a7"/>
      <path id="Path_279" data-name="Path 279" d="M528.113,806.666s13.449,14.542,4.646,33.082" transform="translate(367.284 -531.354)" fill="none" stroke="#3b55ce" stroke-linecap="round" stroke-width="2.308"/>
      <path id="Path_328" data-name="Path 328" d="M536.447,806.666s-14.68,15.874-5.072,36.111" transform="translate(-359.687 -534.529)" fill="none" stroke="#3b55ce" stroke-linecap="round" stroke-width="2.308"/>
      <path id="Path_280" data-name="Path 280" d="M542.668,819.671a44.709,44.709,0,0,0,15.727-19.018c5.557-12.823,5.8-27.82,0-33.139-5.421-4.977-11.855-1.936-13.552,6.764s2.175,30.747-9.19,45.392Z" transform="translate(317.651 -511.333)" fill="#22a482"/>
      <path id="Path_325" data-name="Path 325" d="M557.467,824.665A48.8,48.8,0,0,1,540.3,803.906c-6.066-14-6.327-30.368,0-36.173,5.917-5.432,12.94-2.113,14.792,7.384s-2.374,33.562,10.031,49.548Z" transform="translate(-392.628 -516.48)" fill="#22a482"/>
      <path id="Path_281" data-name="Path 281" d="M557.361,774.4a77.162,77.162,0,0,1-2.175,27.126,64.831,64.831,0,0,1-11.137,22.616" transform="translate(313.605 -515.805)" fill="none" stroke="#3b55ce" stroke-linecap="round" stroke-width="2.308"/>
      <path id="Path_326" data-name="Path 326" d="M544.447,774.4a84.227,84.227,0,0,0,2.374,29.609A70.768,70.768,0,0,0,558.978,828.7" transform="translate(-391.23 -520.51)" fill="none" stroke="#3b55ce" stroke-linecap="round" stroke-width="2.308"/>
      <path id="Path_282" data-name="Path 282" d="M768.537,820.293s.239-19.029-14.861-36.76-32.353-24.12-47.271-18.7c-11.1,4.009-8.256,16.865.82,22.343,10.75,6.48,51.006,9.11,52.384,33.116Z" transform="translate(238.844 -510.293)" fill="#91dbac"/>
      <path id="Path_329" data-name="Path 329" d="M774.886,825.541s.261-20.771-16.222-40.126S723.35,759.088,707.066,765c-12.12,4.375-9.012,18.409.895,24.389,11.734,7.073,55.676,9.944,57.18,36.148Z" transform="translate(-887.186 -515.541)" fill="#91dbac"/>
      <path id="Path_283" data-name="Path 283" d="M716.2,783.124c20.5-1.139,51.906,17.731,56.222,46.861" transform="translate(230.647 -519.985)" fill="none" stroke="#3b55ce" stroke-linecap="round" stroke-width="2.308"/>
      <path id="Path_284" data-name="Path 284" d="M820.349,825.331s9.361-9.976,7.55-29.187-18.7-23.971-21.739-14.69c-2.38,7.311,14.064,24.324,8.2,43.877Z" transform="translate(187.409 -516.994)" fill="#3dc19a"/>
      <path id="Path_330" data-name="Path 330" d="M821.67,829.768s10.218-10.889,8.241-31.859-20.411-26.166-23.73-16.035c-2.6,7.98,15.352,26.551,8.95,47.894Z" transform="translate(-933.559 -521.583)" fill="#3dc19a"/>
      <path id="Path_285" data-name="Path 285" d="M822.206,788.335c3.621,4.692,10.591,23.915,3.485,42.522" transform="translate(179.562 -522.52)" fill="none" stroke="#3b55ce" stroke-linecap="round" stroke-width="2.308"/>
      <path id="Path_286" data-name="Path 286" d="M495.518,860.847c.423.808.1,2.411-3.108,3.729s-8.987.771-11.287.323-3.729-1.119-7.11-.41-8.987.4-10.678-1.032c-.584-.671-.186-2.076-.186-2.076Z" transform="translate(337.965 -558.069)" fill="#8fc9c6"/>
      <path id="Path_287" data-name="Path 287" d="M465,842.754c-.472,2.337-2.374,7.831-1.827,10.5,2.4,2.026,7.52,2.163,11.361,1.243s6.538,1.007,11.362,1.243,8.7-1.032,9.646-3.021-7.21-3.829-12.841-5.556a25.658,25.658,0,0,1-9.559-5.047Z" transform="translate(337.938 -549.933)" fill="#228c7e"/>
      <g id="Group_94" data-name="Group 94" transform="translate(801.016 292.187)" clip-path="url(#clip-path)">
        <path id="Path_288" data-name="Path 288" d="M484.241,847.992s1.131-3.182,2.648-4.2" transform="translate(-472.272 -842.846)" fill="none" stroke="#8fc9c6" stroke-linecap="round" stroke-width="1.165"/>
        <path id="Path_289" data-name="Path 289" d="M491.824,851s1.131-3.182,2.648-4.2" transform="translate(-475.567 -844.154)" fill="none" stroke="#8fc9c6" stroke-linecap="round" stroke-width="1.165"/>
        <path id="Path_290" data-name="Path 290" d="M499.408,853.983s1.131-3.182,2.648-4.214" transform="translate(-478.862 -845.443)" fill="none" stroke="#8fc9c6" stroke-linecap="round" stroke-width="1.165"/>
      </g>
      <path id="Path_292" data-name="Path 292" d="M466.482,826.756V835.3a3.725,3.725,0,0,1,1.4.809c.41.49.979,2.1,1.674,2.13,2.756.114,4.384-3.53,4.384-3.53l1.036-7.755Z" transform="translate(396.985 -541.035)" fill="#ff9a8d"/>
      <path id="Path_293" data-name="Path 293" d="M323.971,838.663c-.6.569-2.107.672-4.054-1.833s-2.858-7.755-3.018-9.9.091-3.542-1.355-6.377-2.54-7.846-1.685-9.68c.455-.683,1.788-.672,1.788-.672Z" transform="translate(470.677 -533.059)" fill="#aaeeed"/>
      <path id="Path_294" data-name="Path 294" d="M326.769,808.4c-2.186.148-7.5-.194-9.737.934-1.207,2.6-.091,7.163,1.7,10.317s.706,6.024,1.628,10.352,3.018,7.414,5,7.789c2.164.41,1.64-7.3,1.8-12.7a23.6,23.6,0,0,1,2.141-9.657Z" transform="translate(469.247 -532.191)" fill="#03aa99"/>
      <g id="Group_95" data-name="Group 95" transform="translate(785.774 276.212)" clip-path="url(#clip-path-2)">
        <path id="Path_295" data-name="Path 295" d="M333.371,827.657s3.075.228,4.35,1.31" transform="translate(-324.644 -817.681)" fill="none" stroke="#aaeeed" stroke-linecap="round" stroke-width="1.165"/>
        <path id="Path_296" data-name="Path 296" d="M332.469,835.746s3.086.228,4.362,1.321" transform="translate(-324.21 -821.579)" fill="none" stroke="#aaeeed" stroke-linecap="round" stroke-width="1.165"/>
        <path id="Path_297" data-name="Path 297" d="M331.568,843.856s3.086.228,4.362,1.321" transform="translate(-323.776 -825.487)" fill="none" stroke="#aaeeed" stroke-linecap="round" stroke-width="1.165"/>
      </g>
      <path id="Path_299" data-name="Path 299" d="M339.954,800.753l-5.557,3.963a3.781,3.781,0,0,1-.421,1.56c-.353.535-1.765,1.5-1.606,2.175.626,2.687,4.555,3.3,4.555,3.3l7.664-4.088Z" transform="translate(461.618 -528.505)" fill="#ff9a8d"/>
      <path id="Path_300" data-name="Path 300" d="M473.142,592.009c-9.566,0-16.683.717-16.683.717-3.052,1.333-8.3,8.291-9.85,12.7s.751,10.579,1.56,14.372c4.487,21.147,9.11,35.838,10.818,44.231,1.07,5.125-2.733,5.945-2.767,14.064,0,11.627.433,36.441.433,36.441a11.173,11.173,0,0,0,8.313.66s7.174-40.883,7.972-45.552c1.275-7.6,1.72-10.773,1.856-23.915C474.987,627.243,473.142,592.009,473.142,592.009Z" transform="translate(360.813 -427.911)" fill="#0065ce"/>
      <path id="Path_301" data-name="Path 301" d="M425.309,606.072c-1.606,7.493-12.333,16.49-12.333,16.49-1.218,3.485-16.934,57.315-19.564,59.365s-41.68,23.186-41.68,23.186a8.826,8.826,0,0,1-3.7-3.895,11.21,11.21,0,0,1-.9-2.562,1.867,1.867,0,0,0-.068-.364.465.465,0,0,1,0-.08s20.009-21.159,24.723-23.413a44.022,44.022,0,0,1,8.04-3.143h0c5.386-25.053,5.216-44.561,9.566-58.374a61.383,61.383,0,0,1,2.528-6.833c1.139-2.448,1.97-4.487,2.653-6.229.285-.752.547-1.446.786-2.1s.444-1.264.626-1.822c.125-.387.239-.763.353-1.139.49-1.572.843-2.836,1.23-4.031.171-.524.353-1.036.547-1.572.1-.251.2-.524.319-.774s.216-.547.342-.82h0l7.47,5.569,3.6,2.676Z" transform="translate(408.533 -425.962)" fill="#0065ce"/>
      <path id="Path_302" data-name="Path 302" d="M409.778,596.279a35.553,35.553,0,0,1-4.555,4.885c-5.546,4.84-8.894,12.344-11.855,27.923-3.337,17.537-8.928,43.616-9.6,45.233s-5.6,1-14.622,7.6c-6.833,4.977-16.706,15.317-21.181,19.291a11.206,11.206,0,0,1-.9-2.562,3.611,3.611,0,0,0-.068-.364.471.471,0,0,1,0-.08s20.009-21.159,24.723-23.414a44.032,44.032,0,0,1,8.04-3.143h0c5.136-25.053,5.216-44.561,9.566-58.374a57.851,57.851,0,0,1,2.539-6.833c1.139-2.448,1.97-4.5,2.642-6.252.307-.752.558-1.458.786-2.1s.444-1.264.626-1.822c.125-.387.239-.763.353-1.139.49-1.572.843-2.836,1.23-4.031.171-.524.353-1.036.547-1.572.1-.25.2-.524.319-.774s.239-.535.364-.809h0l7.47,5.58Z" transform="translate(408.564 -425.952)" fill="#4e7eac"/>
      <path id="Path_303" data-name="Path 303" d="M466.9,620.869s-4.9,6.411-18.335,6.913a28.572,28.572,0,0,1-15.2-3.416l3.633-5.694Z" transform="translate(366.946 -440.76)" fill="#4e7eac"/>
      <path id="Path_304" data-name="Path 304" d="M351.723,705.293s39.083-21.17,41.7-23.208,18.335-55.869,19.542-59.342c0,0,11.581-9.429,13.176-16.911l-26.762-17.515c-2.038,4.4-2.027,7.334-7.471,18.335-4.988,10.056-7.038,39.858-12.094,65.173a45.556,45.556,0,0,0-8.04,3.132c-4.726,2.278-24.735,23.425-24.735,23.425A9.771,9.771,0,0,0,351.723,705.293Z" transform="translate(408.541 -426.132)" fill="#004e89"/>
      <g id="Group_96" data-name="Group 96" transform="translate(755.584 162.185)" clip-path="url(#clip-path-3)">
        <path id="Path_305" data-name="Path 305" d="M419.356,594.515c-5.637,7.22-12.823,11.6-15.806,16.558s-4.646,15.67-8.518,35.28-7.345,32.683-8.4,33.856-7.664,2.278-17.97,9.236S346.4,707.437,346.4,707.437" transform="translate(-346.736 -591.303)" fill="none" stroke="#274d79" stroke-width="1.165"/>
        <path id="Path_306" data-name="Path 306" d="M462.9,627.529s-2.278,12.31-13.187,10.249" transform="translate(-396.519 -607.213)" fill="none" stroke="#274d79" stroke-width="1.165"/>
        <path id="Path_307" data-name="Path 307" d="M351.109,793.324a13.848,13.848,0,0,0,6.6,10.648" transform="translate(-349.003 -687.109)" fill="none" stroke="#274d79" stroke-width="1.165"/>
      </g>
      <path id="Path_309" data-name="Path 309" d="M471.845,475.648l9.258,7.926,5.307-12.6-11.023-6.366Z" transform="translate(348.4 -366.52)" fill="#ff9a8d"/>
      <path id="Path_310" data-name="Path 310" d="M488.006,474.714s-10.921-3.063-9.452-10.1l11.024,6.366Z" transform="translate(345.232 -366.52)" fill="#ba5964"/>
      <path id="Path_311" data-name="Path 311" d="M463.929,493.552a10.807,10.807,0,0,1,3.86,7.106c.5,4.475.9,11.171,1.275,20.9.342,8.837,1.23,34.46,1.23,34.46s-6.753,4.43-18.107,3.519c-10.853-.865-15.533-6.206-15.533-6.206s1.139-36.031,4.692-50.209c5.273-14.622,13.6-17.162,13.6-17.162Z" transform="translate(365.357 -376.804)" fill="#ffc253"/>
      <path id="Path_312" data-name="Path 312" d="M510.639,444.721c.569.991,3.553,5.182,4.555,6.389s-2.893,1.537-2.893,1.537Z" transform="translate(329.704 -356.934)" fill="#ba5964"/>
      <path id="Path_313" data-name="Path 313" d="M472.207,445.482a25.79,25.79,0,0,0,1.275,2.528c.649,1.07,9.725,4.76,12.128,5.045s5.58-.194,4.942-8.188-2.665-14.93-7.972-18.551-12.846.33-16.08,5.455S466.684,446.962,472.207,445.482Z" transform="translate(351.579 -347.388)" fill="#ff9a8d"/>
      <path id="Path_314" data-name="Path 314" d="M468.345,435.954h0l-1.139,3.69s-.922.433-3.234-2.437c-2.539-3.154-7.163-8.53-6.707-11.946.6-4.475,5.694-6.093,5.694-6.093s2.619-8.279,12.857-12.686,14.8,3.006,6.9,8.473c0,0,5.478,2.733,2.016,4.806s-13.335,1.822-13.335,1.822,4.851,1.845,3.416,3.223-7.71.809-7.71.809l.786,3.155s-2.551-.786-3.929.865C462.287,431.615,464.826,437,468.345,435.954Z" transform="translate(355.441 -337.86)" fill="#001c45"/>
      <path id="Path_315" data-name="Path 315" d="M462.377,413.62s-3.052,6.605,2.676,11.046c0,0-5.694-.182-6.924-5.6" transform="translate(355.009 -341.946)" fill="none" stroke="#001c45" stroke-linecap="round" stroke-width="1.736"/>
      <path id="Path_316" data-name="Path 316" d="M501.088,447.162a.991.991,0,0,0-1.264-.6.968.968,0,0,0-.6,1.253.991.991,0,0,0,1.253.615,1,1,0,0,0,.615-1.264Z" transform="translate(335.236 -357.792)" fill="#001c45"/>
      <path id="Path_317" data-name="Path 317" d="M499.316,442.236l-3.963,2.608a2.369,2.369,0,0,1,1.048-2.391,2.676,2.676,0,0,1,2.915-.216Z" transform="translate(337.087 -355.576)" fill="#001c45"/>
      <path id="Path_318" data-name="Path 318" d="M471.854,453.913a2.278,2.278,0,0,1,2.027-.342c.228.1,0,.49-.2.478-1.139-.091-2.334.2-2.505,1.515,0,.068-.068,0-.068,0A1.674,1.674,0,0,1,471.854,453.913Z" transform="translate(348.765 -361.149)" fill="#ba5964"/>
      <path id="Path_319" data-name="Path 319" d="M473.035,454.222c.091-.08.421.125.421.205a1.446,1.446,0,0,0-.41.638,1.88,1.88,0,0,0,.08,1.139,2.084,2.084,0,0,0,2.164,1.48s.057,0,0,.057a2,2,0,0,1-2.4-.854A2.152,2.152,0,0,1,473.035,454.222Z" transform="translate(348.086 -361.503)" fill="#ba5964"/>
      <path id="Path_320" data-name="Path 320" d="M460.543,500.591c-2.278,1.139-5.181,7.653-3.086,14.633s4.794,14.2,4.794,14.2,10.8-2.551,13.665-9.429c0,0-3.815-9.315-5.591-13.085S466.2,497.6,460.543,500.591Z" transform="translate(355.681 -383.445)" fill="#e09736"/>
      <path id="Path_321" data-name="Path 321" d="M478.3,563.271c2.426,2.426,5.694,5.079,7.562,5.808-.148-4.066-.3-7.516-.433-11.286l-8.085-10.727-5.307-1.435-1.9,5.5S474.435,559.4,478.3,563.271Z" transform="translate(349.226 -405.562)" fill="#e09736"/>
      <path id="Path_322" data-name="Path 322" d="M464.549,500.97c-5.1,1.355-6.833,8.678-1.708,20.02,4.931,10.875,12.868,20.828,17.742,24.222s23.778,2.277,39.584-2.392c0,0,9.008-3.234,11.513-5.455,5.58-4.942,5.853-11.5,1.754-10.534s-10.568,5.42-10.568,5.42-1.719-3.416-2.961-6.013c0,0-1.139.285-1.5,2.631s-.353,5.6-1.036,6.081c-1.811,1.264-27.149,3.416-30.167.41-3.416-3.416-8.393-12.333-11.923-20.6C471.382,505.639,469.81,499.626,464.549,500.97Z" transform="translate(354.227 -383.949)" fill="#ff9a8d"/>
      <path id="Path_323" data-name="Path 323" d="M462.17,498.162c-2.278,1.139-5.181,7.653-3.086,14.645S463.878,527,463.878,527s10.135-1.526,14.44-7.345c0,0-4.612-11.388-6.389-15.169S467.829,495.2,462.17,498.162Z" transform="translate(354.897 -382.28)" fill="#ffc253"/>
    </g>
  </g>
</svg>
