<svg xmlns="http://www.w3.org/2000/svg" width="184.917" height="184.658" viewBox="0 0 184.917 184.658">
  <path id="Icons-PMX_Library" d="M252.978,337.307c-5.79,1.138-11.57.734-17.314,1.149-3.741.269-7.507.223-11.258.312-7.964.192-15.921.674-23.9.56-8.865-.124-15.159-6.365-15.247-15.212-.1-13.538-.1-27.083-.45-40.6-.333-12.96-.1-25.917-.355-38.87q-.238-11.563-.3-23.123c-.039-10.116,7.361-17.573,17.47-17.623,3.11-.018,6.219-.043,9.329.032,1.532.039,2.067-.553,1.989-2.067-.273-5.237-.528-10.474-.677-15.715-.28-10.1,2.007-19.279,10.407-25.793,13.871-10.755,38.274-6.535,44.437,15.506a34.941,34.941,0,0,1,1.245,9.014c.071,5.7.216,11.4.355,17.1.025.826-.4,2.011.911,2.23s2.557.355,3.439-1.064c1.854-2.968,3.8-5.872,5.7-8.811q4.33-6.691,8.645-13.389a12.211,12.211,0,0,1,17.187-3.624C323.955,189.98,343,203.1,362.18,216.035c2.9,1.961,5.638,4.007,6.478,7.634a13.756,13.756,0,0,1-2.269,11.609q-15.183,21.4-30.246,42.9c-3.4,4.794-6.819,9.584-10.205,14.428a12.845,12.845,0,0,1-4.337,4.11,2.912,2.912,0,0,0-1.574,3q0,11.758-.138,23.52c-.1,8.248-5.1,14.3-13,15.51-3.454.528-6.985.163-10.482.057-6.081-.188-12.162-.465-18.243-.645-7.12-.213-14.244-.213-21.343-.862a6.444,6.444,0,0,1-.667-.138c.284-.433.688-.319,1-.33,10.357-.294,20.718-.5,31.072-.9,5.439-.213,10.879-.266,16.311-.418,6.737-.191,11.067-4.751,10.992-11.517-.114-11.4-.188-22.8-.464-34.2q-.66-27-.762-54.018c0-5.117-.188-10.233-.284-15.35a8.735,8.735,0,0,0-8.6-8.723c-6.542-.089-13.088-.028-19.63-.032-4.925,0-9.85.057-14.776-.028-1.741-.032-2.372.482-2.354,2.312.082,9.4.064,18.793.028,28.186a20.452,20.452,0,0,1-15.669,19.577,19.527,19.527,0,0,1-23.789-18.846c.021-9.574.191-19.172.386-28.757.035-1.826-.472-2.5-2.386-2.482-8.811.082-17.626,0-26.438.046-5.542.021-9.031,3.574-9.088,9.145-.163,16.517-.191,33.04-.55,49.557-.216,10.042-.1,20.084-.355,30.14-.191,7.833-.507,15.662-.613,23.5-.1,6.875,4.276,11.322,11.166,11.556,9.382.323,18.768.589,28.154.894q11.159.355,22.339.745C252.226,337.221,252.6,337.271,252.978,337.307Zm68.456-47.894c2.815-4.354,5.468-8.57,8.234-12.708q15.247-22.779,30.541-45.515c2.167-3.227,1.8-5.141-1.333-7.326q-28.307-19.726-56.606-39.465c-4.631-3.234-7.209-2.837-10.545,1.8q-5.854,8.127-11.655,16.279c-.323.454-.993.9-.734,1.475s1.046.323,1.592.323H304.06a17.654,17.654,0,0,1,10.152,2.794,16.02,16.02,0,0,1,7.4,13.967c.1,22.03-.319,44.057-.472,66.088A3.648,3.648,0,0,0,321.434,289.413ZM261.5,190.965c-.163-3.585.355-7.936-.418-12.24-1.606-8.893-6.443-15.276-15.116-18.084-8.73-2.837-16.8-1.266-23.509,5.283-5.152,5.035-7.056,11.531-7.351,18.5-.238,5.673-.262,11.382-.8,17.056-.138,1.464.408,1.936,1.851,1.915,4.078-.071,8.155-.078,12.233,0,1.525.028,2.007-.479,2.021-2.007.043-4.982.2-9.96.355-14.942a9.68,9.68,0,0,1,12.974-8.723c4.273,1.585,6.489,5.063,6.631,10.4.121,4.468-.067,8.928-.355,13.382-.1,1.518.482,2.1,2,2.06,2.521-.074,5.049-.064,7.574,0,1.418.035,1.957-.525,1.929-1.947C261.452,198.3,261.5,195,261.5,190.965Zm-12.63,45.479-.489.053c-.163-3.152-.355-6.3-.482-9.453-.17-4.138-.333-8.272-.433-12.41-.043-1.8-.638-2.78-2.652-2.613a29.947,29.947,0,0,1-4.851,0c-1.9-.149-2.436.624-2.4,2.464.191,9.641.273,19.282.408,28.927a11.593,11.593,0,0,0,11.609,11.4,11.332,11.332,0,0,0,11.857-10.872c.245-10.028-.11-20.066.44-30.09.075-1.369-.535-1.854-1.837-1.812-1.553.05-3.106,0-4.663,0-5.638,0-5.567,0-5.734,5.62C249.46,223.942,249.134,230.186,248.868,236.445ZM245.634,198.8c0-3.752.057-7.5,0-11.251-.06-3.216-1.844-5.01-4.72-4.964-2.723.06-4.5,1.975-4.454,5.014.053,3.883.156,7.765.386,11.638.082,1.369-.968,3.085.227,4,1.064.816,2.762.269,4.177.262C246.744,203.5,245.978,204.135,245.634,198.8Z" transform="translate(-184.16 -154.687)" fill="#309462"/>
</svg>
