<svg xmlns="http://www.w3.org/2000/svg" width="172.094" height="180.334" viewBox="0 0 172.094 180.334">
  <path id="Path_1063" data-name="Path 1063" d="M231.658,150.6a67.032,67.032,0,0,0-12.726-1.085c-19.577.631-36.345,15.556-38.8,35.026-2.042,16.187,4.085,28.9,17.332,38.263,2.379,1.681,2.737,2.454,1.961,5.294-3.057,11.162-6.592,22.218-9.035,33.512-2.982,13.8-7.372,27.2-10.8,40.862a5.475,5.475,0,0,0-.085,2.567q1.418,6.436,2.854,12.864c.1.472.071,1.12.61,1.252s.8-.493,1.1-.855q5.989-7.223,11.95-14.464a5.163,5.163,0,0,0,1.046-1.929c1.3-4.773,2.606-9.549,3.989-14.3a2.5,2.5,0,0,0-.876-2.918c-1.592-1.376-3.085-2.865-4.61-4.315-1.23-1.163-2.128-2.482-1.532-4.273a4.161,4.161,0,0,1,3.766-3.06c2.266-.28,4.489-.886,6.737-1.34.486-.1,1.138-.078,1.3-.574.787-2.4,2.408-4.688,1.121-7.425q-2.365-5.042-4.649-10.127c-1.479-3.3-.56-5.064,2.932-5.758,2.064-.411,4.113-.911,6.191-1.227a2.564,2.564,0,0,0,2.362-2.156c1.064-3.815,2.245-7.6,3.408-11.382.883-2.872,1.535-3.237,4.489-3.411,12.691-.741,23.158-5.773,30.785-16.169,1.213-1.652,1.152-1.734-.787-2.181-11.5-2.649-21.534-7.733-28.721-17.449-.727-.982-3-.592-2.28-3.092.355-1.216-1.032-2.94-1.344-4.528a11.29,11.29,0,0,1,.018-4.787,3.515,3.515,0,0,1,.986-2.06c.248,1.128.443,2.035.649,2.947a15.074,15.074,0,0,0,3.418,6.712c.5.571.993,1.032,1.908.589,3.252-1.574,5.521-6.361,4.73-10.134a9.149,9.149,0,0,0-8.468-7.581c-5.606-.145-10.283,5.439-9.219,11.021a11.943,11.943,0,0,0,4.7,7.538,3.607,3.607,0,0,1,.543.5c.071.078.06.223.11.45a4.069,4.069,0,0,1-2.989-.454c-6.8-2.656-9.843-10.857-6.67-17.907,2.819-6.266,9.017-9.485,16.183-8.411,5.95.894,11.3,6.521,12.13,12.765a14.239,14.239,0,0,1-7.929,15.01c-1.681.819-.993,1.2-.025,1.872,7.485,5.195,15.864,8.237,24.729,10.113,1.518.323,2.241-.028,2.691-1.546,3.425-11.538,2.571-22.64-3.369-33.2a42.348,42.348,0,0,0-19.421-17.754c-.553-.262-1.064-.61-1.6-.918,4.319.738,8.021,2.862,11.545,5.3a42.752,42.752,0,0,1,14.013,16.07c.748,1.482,1.308,1.95,2.585.652.266-.273.574-.677,1.085-.507,0,.071.05.163.032.177-2.62,1.773-2.128,3.993-1.315,6.588a40.508,40.508,0,0,1,.354,23.247c-.589,2.11-.425,2.379,1.773,2.528,3.83.262,7.673.17,11.513.074,1.617-.039,1.248-.883.812-1.847-2.869-6.319-2.1-12.269,2.3-17.538,4-4.79,9.375-6.407,15.4-5.081,6.131,1.351,10.038,5.319,11.872,11.347a1.866,1.866,0,0,1,.035.546c0,.05-.064.1-.1.156-.386-.053-.376-.418-.482-.667-2.432-5.532-7.283-8.471-12.613-7.631a11.949,11.949,0,0,0-10.326,11.23,11.388,11.388,0,0,0,1.372,6.085c.514,1.042,1.163,1.117,2.092.652a14.259,14.259,0,0,0,5.258-4.34c.355-.472.493-1.156,1.326-1.358a6.2,6.2,0,0,1-.865,3.663,14.187,14.187,0,0,1-2.56,3.627c-1.773,1.89-1.73,2.127.709,3.237a11.23,11.23,0,0,0,14.616-4.734c.482-.851.894-1.745,1.461-2.861a3.325,3.325,0,0,1-.376,2.312,15.579,15.579,0,0,1-21.878,8.467,4.847,4.847,0,0,0-4.333-.22c-5.773,2.2-11.829,2.55-17.924,2.195a3.425,3.425,0,0,0-3.613,2.071c-3.035,5.18-6.819,9.73-12.12,12.786a1.765,1.765,0,0,0-.83,1.9c.514,6.914.649,13.829.922,20.768.16,4.078.422,8.156.546,12.237.294,9.836.535,19.672.794,29.512.145,5.524,3.61,9.928,8.755,11.021a10.223,10.223,0,0,0,2.209.188c12.506-.128,25.016-.089,37.515-.465,10.9-.326,21.793-.316,32.689-.191a8.613,8.613,0,0,0,8.613-8.343c-.078-15.666.17-31.335-.291-46.993-.209-7,.255-13.988.238-20.984,0-5.634.078-11.272.021-16.907-.174-17.648-8.748-30.494-23.619-39-15.286-8.723-30.917-7.741-46.288.39a2.042,2.042,0,0,1-1.383.308c.709-.557,1.369-1.174,2.128-1.656a46.159,46.159,0,0,1,36.267-6.382c20.871,4.659,35.707,20.6,39,42.029a55.28,55.28,0,0,1,.663,7.567q.3,18.016.443,36.029.206,22.85.326,45.7a16.336,16.336,0,0,1-12.294,15.6,12.182,12.182,0,0,1-2.95.259c-12.57-.043-25.14-.021-37.714-.149-11.574-.117-23.147-.355-34.718-.606-7.585-.156-14.577-7-14.559-14.893.032-10.886.191-21.782.933-32.657.223-3.273.163-6.553.355-9.833.415-6.666.574-13.35.812-20.031.025-.709.39-1.674-.238-2.127-.709-.493-1.326.387-1.936.73a44.677,44.677,0,0,1-16.832,5.493,2.252,2.252,0,0,0-2.22,1.986c-1.011,3.829-2.128,7.631-3.1,11.471-.567,2.237-1.737,3.613-4.156,3.794a18.791,18.791,0,0,0-2.716.592c-3.018.709-3.142.145-1.6,3.464,1.039,2.248,2.057,4.507,3.159,6.737a5.06,5.06,0,0,1,.28,3.947c-.709,2.365-1.457,4.741-1.964,7.156a4.955,4.955,0,0,1-4.287,4.255c-.908.163-1.8.426-3.057.727.915.929,1.649,1.716,2.432,2.457a4.776,4.776,0,0,1,1.514,5.191c-1.773,6.191-3.457,12.411-5.177,18.6a7.362,7.362,0,0,1-1.443,2.574c-4.471,5.62-8.96,11.226-13.407,16.864a6.839,6.839,0,0,1-7.237,2.645,7.791,7.791,0,0,1-6.273-6.152c-1.266-5.23-2.3-10.517-3.514-15.758a7.95,7.95,0,0,1,.209-4.188q10.662-36.271,21.328-72.5A2.856,2.856,0,0,0,191.313,226c-9.574-7.879-15.456-17.992-16.417-30.36-1.379-17.775,5.567-31.852,20.8-41.288,10.12-6.269,21.247-7.8,32.881-4.932A7.774,7.774,0,0,1,231.658,150.6Z" transform="translate(-170.734 -148.027)" fill="#309462"/>
</svg>
